{"title":"Beyond.The.Lights.2014.CAM.READNFO.XViD-BL4CKP34RL","uid":11644178,"size":1670796540,"categoryP":"video","categoryS":"movies","magnet":"?xt=urn:btih:ce789608a76a8d54e4d559a9477d8e136e88e06e&amp;dn=Beyond.The.Lights.2014.CAM.READNFO.XViD-BL4CKP34RL&amp;tr=udp%3A%2F%2Ftracker.openbittorrent.com%3A80&amp;tr=udp%3A%2F%2Fopen.demonii.com%3A1337&amp;tr=udp%3A%2F%2Ftracker.coppersurfer.tk%3A6969&amp;tr=udp%3A%2F%2Fexodus.desync.com%3A6969","seeders":3,"leechers":1,"uploader":"CrAGRG","files":3,"time":1417800010,"description":"Beyond.The.Lights.2014.CAM.READNFO.XViD-BL4CKP34RL\n &lt;a href=&quot;\nhttp://www.imdb.com/title/tt3125324/&quot; rel=&quot;nofollow&quot; target=&quot;_NEW&quot;&gt;\nhttp://www.imdb.com/title/tt3125324/&lt;/a&gt;\n\n\nYear\nDirector\nGina Prince-Bythewood\n\nWriter\nGina Prince-Bythewood\n\nActors\nGugu Mbatha-Raw, Nate Parker, Minnie Driver, Richard Colson Baker\n\nPlot\nA talented young musician on the brink of super stardom struggles with the pressure of her new-found success. \n\n******************************************************************************************\n                   Beyond.The.Lights.2014.CAM.READNFO.XViD-BL4CKP34RL                     \n******************************************************************************************\n\nRipper ...........: J4CKSP4RR0W          IMDB Rating.......: 6.5/10                             \nVideo Codec.......: XViD                 Release Date......: 28 November 2014\nAudio Codec.......: mp3                  Theatre Date......: 14 November 2014  \nAudio Bitrate.....: 128 kbps             Runtime...........: 1hr 49min 12sec\nSubtitles.........: n/a                  Language..........: ENGLISH\nResolution........: 720x304               \n\n\n[color=green]DETAILS:[/color]\n\n\nFormat                      : AVI\nFormat/Info                 : Audio Video Interleave\nFile size                   : 1.54 GiB\nDuration                    : 1h 49mn\nOverall bit rate            : 2 020 Kbps\nWriting library             : VirtualDub build 32839/release\n\nVideo\nID                          : 0\nFormat                      : MPEG-4 Visual\nFormat profile              : Advanced Simple@L5\nFormat settings, BVOP       : 2\nFormat settings, QPel       : Yes\nFormat settings, GMC        : No warppoints\nFormat settings, Matrix     : Default (H.263)\nMuxing mode                 : Packed bitstream\nCodec ID                    : XVID\nCodec ID/Hint               : XviD\nDuration                    : 1h 49mn\nBit rate                    : 1 880 Kbps\nWidth                       : 720 pixels\nHeight                      : 304 pixels\nDisplay aspect ratio        : 2.35:1\nFrame rate                  : 29.970 fps\nColor space                 : YUV\nChroma subsampling          : 4:2:0\nBit depth                   : 8 bits\nScan type                   : Progressive\nCompression mode            : Lossy\nBits/(Pixel*Frame)          : 0.287\nStream size                 : 1.43 GiB (93%)\nWriting library             : XviD 66\n\nAudio\nID                          : 1\nFormat                      : MPEG Audio\nFormat version              : Version 1\nFormat profile              : Layer 3\nMode                        : Joint stereo\nMode extension              : MS Stereo\nCodec ID                    : 55\nCodec ID/Hint               : MP3\nDuration                    : 1h 49mn\nBit rate mode               : Constant\nBit rate                    : 128 Kbps\nChannel(s)                  : 2 channels\nSampling rate               : 44.1 KHz\nCompression mode            : Lossy\nDelay relative to video     : 16ms\nStream size                 : 100.0 MiB (6%)\nAlignment                   : Split accross interleaves\nInterleave, duration        : 33 ms (1.00 video frame)\nInterleave, preload duratio : 500 ms\n\n[color=red]SOURCES:[/color]\n\n\n\nVIDEO: ............. pimp shit upscaled 720 &quot;HDCAM&quot; ...thanks  \nAUDIO: ............. pimp shit upscaled 720 &quot;HDCAM&quot; ...thanks \n\n[color=yellow]NOTES:[/color]\n\n\nREASON FOR READNFO... SOURCE WAS SHIT. HE UPSCALED WHAT WAS PROBABLY AN OK SOURCE TIL HE GOT AHOLD OF IT AND \nCHANGED FRAMERATE AND RESOLUTION.. QUIT FUCKING SHIT UP PIMP YA FOOKIN IDIOT LEAVE SOURCE AS IS AT 29.97 FPS AND\n720X??? RESOLUTION..... AND WE CUT OFF 99% OF THE BS PIMP OPENING..IT NOT ANYWHERE NEAR PERFECT BUT AT LEAST NOW\nIT HAS SUM COLOR AND U CAN ACTUALLY WATCH IT AND ENJOY IT FOR THE MOST PART...\n\nNow started with changing framerate and doin slight crop and resize then onto major denoising.. now we didnt remove\nit all as that woulda cost alot of detail and there wasnt ht much to begin with.. then onto RGB, hue and slight \nsaturation adjustments then took the decent audio and cleaned it up sum, adjsuted eq a lil bit .. \nenjoy til better source comes out which we hope is soon..\n\n\n\n[color=green]SCREENS:[/color]\n\n[IMG]http://i.imgur.com/P7fC3NO.jpg[/IMG]\n[IMG]http://i.imgur.com/KOCl7oK.jpg[/IMG]\n[IMG]http://i.imgur.com/k7xO1e5.jpg[/IMG]\n[IMG]http://i.imgur.com/SxF9Iqq.jpg[/IMG]\n[IMG]http://i.imgur.com/9pPVFFY.jpg[/IMG]\n[IMG]http://i.imgur.com/fCl5Ajn.jpg[/IMG]","torrent":{"xt":"urn:btih:ce789608a76a8d54e4d559a9477d8e136e88e06e","amp;dn":"Beyond.The.Lights.2014.CAM.READNFO.XViD-BL4CKP34RL","amp;tr":["udp%3A%2F%2Ftracker.openbittorrent.com%3A80","udp%3A%2F%2Fopen.demonii.com%3A1337","udp%3A%2F%2Ftracker.coppersurfer.tk%3A6969","udp%3A%2F%2Fexodus.desync.com%3A6969"],"infoHash":"ce789608a76a8d54e4d559a9477d8e136e88e06e","infoHashBuffer":{"type":"Buffer","data":[206,120,150,8,167,106,141,84,228,213,89,169,71,125,142,19,110,136,224,110]},"announce":[],"urlList":[]}}